<svg width="20" height="20" viewBox="0 0 20 20" fill="none" xmlns="http://www.w3.org/2000/svg">
<path d="M18.62 3.448H15.172C15.172 2.53353 14.8087 1.65652 14.1621 1.0099C13.5155 0.36327 12.6385 0 11.724 0C10.8095 0 9.93252 0.36327 9.2859 1.0099C8.63927 1.65652 8.276 2.53353 8.276 3.448H4.828C4.462 3.448 4.11099 3.59339 3.85219 3.85219C3.59339 4.11099 3.448 4.462 3.448 4.828V8.276C2.53353 8.276 1.65652 8.63927 1.0099 9.2859C0.36327 9.93252 0 10.8095 0 11.724C0 12.6385 0.36327 13.5155 1.0099 14.1621C1.65652 14.8087 2.53353 15.172 3.448 15.172V18.621C3.44827 18.9868 3.59377 19.3376 3.85255 19.5962C4.11132 19.8547 4.46217 20 4.828 20H9.655V18.62C9.655 18.0713 9.87298 17.545 10.261 17.157C10.649 16.769 11.1753 16.551 11.724 16.551C12.2727 16.551 12.799 16.769 13.187 17.157C13.575 17.545 13.793 18.0713 13.793 18.62V20H18.621C18.9868 19.9997 19.3376 19.8542 19.5962 19.5955C19.8547 19.3367 20 18.9858 20 18.62V13.793H18.62C18.0713 13.793 17.545 13.575 17.157 13.187C16.769 12.799 16.551 12.2727 16.551 11.724C16.551 11.1753 16.769 10.649 17.157 10.261C17.545 9.87298 18.0713 9.655 18.62 9.655H20V4.828C20 4.462 19.8546 4.11099 19.5958 3.85219C19.337 3.59339 18.986 3.448 18.62 3.448ZM15.172 11.724C15.172 12.1769 15.2612 12.6253 15.4346 13.0437C15.6079 13.4621 15.862 13.8423 16.1822 14.1625C16.5025 14.4826 16.8828 14.7366 17.3012 14.9098C17.7196 15.083 18.1681 15.1721 18.621 15.172V18.621H15.172C15.172 18.1682 15.0828 17.7198 14.9095 17.3015C14.7363 16.8832 14.4823 16.5031 14.1621 16.1829C13.8419 15.8627 13.4618 15.6087 13.0435 15.4355C12.6252 15.2622 12.1768 15.173 11.724 15.173C11.2712 15.173 10.8228 15.2622 10.4045 15.4355C9.98618 15.6087 9.60607 15.8627 9.2859 16.1829C8.96572 16.5031 8.71174 16.8832 8.53846 17.3015C8.36519 17.7198 8.276 18.1682 8.276 18.621H4.828V13.793H3.448C2.89927 13.793 2.37301 13.575 1.985 13.187C1.59698 12.799 1.379 12.2727 1.379 11.724C1.379 11.1753 1.59698 10.649 1.985 10.261C2.37301 9.87298 2.89927 9.655 3.448 9.655H4.828V4.828H9.655V3.448C9.655 2.89927 9.87298 2.37301 10.261 1.985C10.649 1.59698 11.1753 1.379 11.724 1.379C12.2727 1.379 12.799 1.59698 13.187 1.985C13.575 2.37301 13.793 2.89927 13.793 3.448V4.828H18.621V8.276C18.1681 8.27587 17.7196 8.36496 17.3012 8.53818C16.8828 8.7114 16.5025 8.96535 16.1822 9.28554C15.862 9.60573 15.6079 9.98588 15.4346 10.4043C15.2612 10.8227 15.172 11.2711 15.172 11.724Z" fill="#673AB7"/>
</svg>
