<svg width="16" height="16" viewBox="0 0 16 16" fill="none" xmlns="http://www.w3.org/2000/svg">
<g clip-path="url(#clip0_41_12)">
<path fill-rule="evenodd" clip-rule="evenodd" d="M14 4.5V14C14 14.5304 13.7893 15.0391 13.4142 15.4142C13.0391 15.7893 12.5304 16 12 16H11V15H12C12.2652 15 12.5196 14.8946 12.7071 14.7071C12.8946 14.5196 13 14.2652 13 14V4.5H11C10.6022 4.5 10.2206 4.34196 9.93934 4.06066C9.65804 3.77936 9.5 3.39782 9.5 3V1H4C3.73478 1 3.48043 1.10536 3.29289 1.29289C3.10536 1.48043 3 1.73478 3 2V11H2V2C2 1.46957 2.21071 0.960859 2.58579 0.585786C2.96086 0.210714 3.46957 0 4 0L9.5 0L14 4.5ZM3.397 14.841C3.40272 14.9986 3.44136 15.1532 3.51042 15.2949C3.57948 15.4367 3.67744 15.5624 3.798 15.664C3.928 15.772 4.08733 15.856 4.276 15.916C4.46533 15.9767 4.687 16.007 4.941 16.007C5.279 16.007 5.56533 15.9543 5.8 15.849C6.036 15.7437 6.21567 15.597 6.339 15.409C6.46367 15.2197 6.526 15.001 6.526 14.753C6.526 14.529 6.48133 14.3423 6.392 14.193C6.30051 14.0431 6.17117 13.92 6.017 13.836C5.84005 13.7378 5.64921 13.667 5.451 13.626L4.83 13.482C4.68392 13.4541 4.5459 13.394 4.426 13.306C4.38037 13.2708 4.3436 13.2255 4.3186 13.1736C4.2936 13.1216 4.28106 13.0646 4.282 13.007C4.282 12.851 4.34367 12.723 4.467 12.623C4.59233 12.5217 4.763 12.471 4.979 12.471C5.12167 12.471 5.245 12.4937 5.349 12.539C5.44524 12.5771 5.52999 12.6395 5.595 12.72C5.65655 12.7942 5.69788 12.8831 5.715 12.978H6.465C6.4521 12.7744 6.38285 12.5785 6.265 12.412C6.13899 12.2322 5.96604 12.0903 5.765 12.002C5.51957 11.8939 5.25308 11.8419 4.985 11.85C4.69233 11.85 4.43367 11.9 4.209 12C3.98433 12.0993 3.80867 12.2397 3.682 12.421C3.55533 12.603 3.492 12.816 3.492 13.06C3.492 13.2613 3.53267 13.436 3.614 13.584C3.69667 13.7327 3.814 13.855 3.966 13.951C4.118 14.0463 4.29767 14.1173 4.505 14.164L5.123 14.308C5.32967 14.3567 5.484 14.421 5.586 14.501C5.63564 14.5391 5.67537 14.5887 5.70183 14.6454C5.72828 14.7022 5.74069 14.7645 5.738 14.827C5.74026 14.9301 5.71057 15.0314 5.653 15.117C5.58857 15.2048 5.49995 15.2718 5.398 15.31C5.28667 15.3567 5.149 15.38 4.985 15.38C4.86833 15.38 4.76167 15.3667 4.665 15.34C4.57635 15.3162 4.49246 15.2773 4.417 15.225C4.35051 15.1818 4.29357 15.1255 4.24971 15.0594C4.20585 14.9934 4.176 14.919 4.162 14.841H3.397ZM0.806 13.693C0.806 13.4443 0.84 13.2333 0.908 13.06C0.96742 12.9003 1.07243 12.7616 1.21 12.661C1.3499 12.5663 1.51617 12.5184 1.685 12.524C1.835 12.524 1.96767 12.5563 2.083 12.621C2.1957 12.6812 2.28976 12.7711 2.355 12.881C2.4247 12.9967 2.46583 13.1273 2.475 13.262H3.24V13.19C3.23336 13.0058 3.18851 12.825 3.10829 12.659C3.02807 12.4931 2.91423 12.3456 2.774 12.226C2.63096 12.1034 2.46464 12.0108 2.285 11.954C2.09004 11.8872 1.88506 11.8544 1.679 11.857C1.323 11.857 1.01933 11.9313 0.768 12.08C0.518 12.228 0.327333 12.4387 0.196 12.712C0.066 12.9853 0.000666667 13.3117 0 13.691V14.189C0 14.5677 0.0643333 14.893 0.193 15.165C0.324333 15.4363 0.515 15.645 0.765 15.791C1.015 15.9357 1.31967 16.008 1.679 16.008C1.97167 16.008 2.23333 15.9533 2.464 15.844C2.69467 15.7347 2.878 15.5833 3.014 15.39C3.15196 15.1914 3.23036 14.9576 3.24 14.716V14.64H2.476C2.46653 14.7687 2.42605 14.8933 2.358 15.003C2.29136 15.1092 2.19742 15.1955 2.086 15.253C1.96082 15.3125 1.82358 15.3423 1.685 15.34C1.51609 15.3445 1.34967 15.2985 1.207 15.208C1.06993 15.1106 0.965663 14.9739 0.908 14.816C0.834906 14.6153 0.800302 14.4026 0.806 14.189V13.693ZM6.78 15.29C6.71423 15.1489 6.67653 14.9964 6.669 14.841H7.433C7.447 14.919 7.47685 14.9934 7.52071 15.0594C7.56457 15.1255 7.62151 15.1818 7.688 15.225C7.75867 15.2737 7.842 15.3117 7.938 15.339C8.03267 15.3663 8.139 15.38 8.257 15.38C8.42033 15.38 8.558 15.3567 8.67 15.31C8.77195 15.2718 8.86057 15.2048 8.925 15.117C8.98257 15.0314 9.01226 14.9301 9.01 14.827C9.01258 14.7644 9.00001 14.702 8.97338 14.6453C8.94675 14.5885 8.90683 14.539 8.857 14.501C8.75567 14.421 8.60133 14.3567 8.394 14.308L7.776 14.165C7.5854 14.1251 7.40308 14.0527 7.237 13.951C7.09037 13.8609 6.96947 13.7345 6.886 13.584C6.80224 13.4222 6.75997 13.2422 6.763 13.06C6.763 12.816 6.82633 12.603 6.953 12.421C7.07967 12.2397 7.25533 12.099 7.48 11.999C7.70467 11.899 7.96367 11.8493 8.257 11.85C8.561 11.85 8.82067 11.9007 9.036 12.002C9.25333 12.104 9.42 12.2407 9.536 12.412C9.656 12.582 9.72267 12.7707 9.736 12.978H8.986C8.96888 12.8831 8.92755 12.7942 8.866 12.72C8.80099 12.6395 8.71624 12.5771 8.62 12.539C8.50283 12.4905 8.37675 12.4673 8.25 12.471C8.034 12.471 7.86333 12.5217 7.738 12.623C7.67927 12.668 7.63199 12.7262 7.60002 12.793C7.56805 12.8597 7.55228 12.933 7.554 13.007C7.554 13.127 7.60167 13.227 7.697 13.307C7.81699 13.3946 7.955 13.4544 8.101 13.482L8.722 13.625C8.93933 13.675 9.128 13.7453 9.288 13.836C9.448 13.9267 9.573 14.046 9.663 14.194C9.753 14.342 9.798 14.5287 9.798 14.754C9.798 15.0007 9.73533 15.2193 9.61 15.41C9.47758 15.6063 9.29005 15.7591 9.071 15.849C8.837 15.9543 8.551 16.007 8.213 16.007C7.959 16.007 7.73733 15.977 7.548 15.917C7.37381 15.8648 7.21146 15.7792 7.07 15.665C6.94723 15.5626 6.84826 15.4346 6.78 15.29Z" fill="#85B6FF"/>
</g>
<defs>
<clipPath id="clip0_41_12">
<rect width="16" height="16" fill="white"/>
</clipPath>
</defs>
</svg>
