<svg width="21" height="19" viewBox="0 0 21 19" fill="none" xmlns="http://www.w3.org/2000/svg">
<path d="M20.5654 9.34434L11.0239 0.208078C10.9552 0.142118 10.8736 0.0897877 10.7838 0.054083C10.694 0.0183783 10.5977 0 10.5004 0C10.4032 0 10.3069 0.0183783 10.2171 0.054083C10.1272 0.0897877 10.0456 0.142118 9.97692 0.208078L0.435491 9.34434C0.157518 9.6107 0 9.97251 0 10.3499C0 11.1334 0.664819 11.7705 1.48252 11.7705H2.48786V18.2897C2.48786 18.6826 2.81911 19 3.22912 19H9.01791V14.0279H11.6123V19H17.7717C18.1818 19 18.513 18.6826 18.513 18.2897V11.7705H19.5183C19.9121 11.7705 20.2897 11.6217 20.5677 11.3532C21.1445 10.7982 21.1445 9.89926 20.5654 9.34434Z" fill="#EDE7F6"/>
</svg>
