<svg width="10" height="17" viewBox="0 0 10 17" fill="none" xmlns="http://www.w3.org/2000/svg">
<path d="M8.67694 5.8134C8.60678 5.54489 8.51112 5.54619 8.81853 4.81459L9.87723 2.53291C9.88999 2.50048 10.0048 2.2657 9.99969 1.91936C10.0093 1.57562 9.80006 1.0827 9.28538 0.853754C8.53918 0.493796 8.53918 0.492498 7.79107 0.135783C7.29169 -0.121053 6.78338 0.0255252 6.52955 0.252526C6.26168 0.467853 6.15709 0.706528 6.14051 0.738956L5.07988 3.01869C4.72018 3.72175 4.66214 3.64781 4.41149 3.76261C4.11174 3.84692 3.6181 4.12451 3.27307 4.93977L2.56641 6.46132L2.38975 6.84139L3.13594 7.1994L0.839951 12.1435C0.597596 12.6805 0.734718 13.0748 0.734718 13.4614C0.741096 13.868 0.685609 14.4407 0.176026 15.5433L0 15.9234L2.24306 17L2.41908 16.6212C2.93377 15.5187 3.3311 15.112 3.64361 14.8584C3.93699 14.612 4.32412 14.4693 4.57859 13.9374L6.87458 8.9966L7.62078 9.35591L7.79936 8.97325L8.5041 7.45299C8.90463 6.66303 8.80386 6.10201 8.6763 5.8121L8.67694 5.8134ZM3.83239 13.5814C3.7329 13.8103 3.56899 13.8667 3.13722 14.2008C2.76859 14.4913 2.33043 14.9609 1.85529 15.887L1.09634 15.5225C1.49622 14.5627 1.57467 13.918 1.56191 13.4452C1.5415 12.8939 1.479 12.7291 1.58998 12.5047L3.88597 7.5626L6.12839 8.64053L3.83239 13.5814Z" fill="#D99BFF"/>
</svg>
