<svg width="16" height="10" viewBox="0 0 16 10" fill="none" xmlns="http://www.w3.org/2000/svg">
<path fill-rule="evenodd" clip-rule="evenodd" d="M6.94 0.939993C7.22125 0.659092 7.6025 0.501312 8 0.501312C8.3975 0.501312 8.77875 0.659092 9.06 0.939993L14.718 6.59599C14.9993 6.87739 15.1572 7.25899 15.1571 7.65685C15.157 8.0547 14.9989 8.43623 14.7175 8.71749C14.4361 8.99875 14.0545 9.15671 13.6566 9.15662C13.2588 9.15653 12.8773 8.99839 12.596 8.71699L8 4.12099L3.404 8.71699C3.12123 8.99037 2.7424 9.14174 2.3491 9.13851C1.9558 9.13528 1.5795 8.9777 1.30126 8.69972C1.02302 8.42174 0.865084 8.04559 0.861483 7.6523C0.857881 7.259 1.0089 6.88002 1.282 6.59699L6.939 0.938992L6.94 0.939993Z" fill="#697586"/>
</svg>
